<?xml version="1.0" encoding="utf-8"?>
<!-- Generator: Adobe Illustrator 22.1.0, SVG Export Plug-In . SVG Version: 6.00 Build 0)  -->
<svg version="1.1" id="Layer_1" xmlns="http://www.w3.org/2000/svg" xmlns:xlink="http://www.w3.org/1999/xlink" x="0px" y="0px"
	 width="133.5px" height="30px" viewBox="0 0 133.5 30" style="enable-background:new 0 0 133.5 30;" xml:space="preserve">
<g transform="translate(-874 -68)">
	<g>
		<g>
			<g transform="translate(873.985 67.922)">
				<path fill="#e60000" d="M133.4,21l-1.5-1.6c-0.2-0.1-0.5-0.1-0.7,0.1l0,0c-0.5,0.7-1.1,1.4-1.8,1.9c-1,1-2.3,1.7-3.7,1.8
					c-0.3-0.2-0.5-0.5-0.4-0.9c1.4-3.5,2.8-7.2,4.2-10.8c0.2-0.4,0.3-1,0.2-1.4c-0.2-0.5-0.7-0.8-1.2-0.8c-1.4,0.3-2.8,0.4-4.3,0.4
					c-1.3,0-2.4-0.6-3.7-0.4c-1.1,0.3-1.3,1.7-2,2.2c-1-0.8-2.2-1.5-3.4-1.9c-1.1-0.3-2.2-0.5-3.3-0.5c-4.4-0.1-8.7,1.7-11.7,4.9
					c-1.4,1.7-2.5,3.6-3.4,5.6c-1.1,0.7-2.3,1.7-3.5,2.4c-0.9,0.5-2.1,1-2.6,0.6c-0.2-0.1-0.2-0.4-0.1-0.6c0.8-2.6,1.9-5.1,2.8-7.7
					c0.2-0.7,0.5-1.3,0.9-1.8c1.1-0.2,2.2-0.4,3.2-0.7c0.7-0.3,1.7-0.4,1.8-1.4c-0.3-0.8-0.4-2.4-1.5-2.1c-0.4,0.1-0.7,0.2-1.1,0.4
					C96.3,9,95,9.5,95.3,8.6C96.1,6.3,96.7,5,97.5,3c0.2-0.4,0.2-0.9,0-1.4c-0.2-0.4-0.7-0.7-1.2-0.8c-0.8-0.1-1.5,0.2-2,0.8
					c-0.9,1.7-2.2,3-3.9,3.9c-1.4,0.6-2.9,1-4.4,1.2c-1.1,0.5-0.9,2-1.9,2.6c-1.2,0.1-1.9-0.1-3,0.1c-0.8,0-0.8,0.7-0.9,1.1
					l-0.5,1.2c-0.2,0.4-0.2,1,0.6,0.9h2.3c0.2,0.1,0.3,0.2,0.1,0.6c-0.8,2-1.5,4.1-2.3,6.1c-1.5,1.4-3.2,2.6-5,3.7
					c-0.8,0.6-1.9,1-2.9,1c-0.4-0.1-0.6-0.4-0.6-0.8l4.3-11.1c0.4-0.9,0.6-1.5,0-2.1c-0.3-0.3-0.7-0.5-1.1-0.4
					c-1.5,0.3-2.9,0.4-4.4,0.4c-1.5,0.1-3.4-1.2-4.4,0.4c-0.4,0.5-0.6,1.3-1.1,1.5c-1-0.8-2.2-1.4-3.4-1.9c-1.1-0.3-2.1-0.4-3.2-0.5
					c-1.9-0.1-3.7,0.2-5.5,0.8c-5,1.5-8,5.4-9.7,9.9c-0.5,1.3-2.3,2-2.8,2.3c-0.4,0.2-0.9,0.3-1.3,0.4c0.4-1.3,0.6-2.7,0.6-4.1
					c0-2.3-1.4-4.5-3.5-5.5c-0.6-0.3-0.9-0.4-1.4-0.6c2.1-0.5,4.4-1.3,5.5-3.1c1.1-1.6,1.1-3.8,0-5.4c-2.1-2.6-5.4-3.7-8.6-4
					c-9.4-0.7-18.6,3.4-25,9.6c-0.1,0.3,0.1,0.7,0.4,0.9c0.5,0.4,1,1.2,1.7,1.2c1.6-1.5,3.4-2.8,5.3-3.9c0.1,0,0.3-0.2,0.4,0.1
					c-0.5,0.7-0.9,1.4-1.3,2.2c-1.8,4-3.4,8.2-5.2,12.3c-0.7,1.4-1.5,3-3.3,3C3,25.2,2,24,1,22.9c-0.1-0.1-0.2-0.1-0.4-0.1
					c-0.2,0.1-0.2,0.7-0.4,1.5c-0.1,0.7-0.4,1.3,0,1.9c2.8,3.2,7.3,4.6,11.4,3.4c3-0.6,5.5-2.6,6.9-5.3c2.4-5.4,4.6-10.7,6.8-16.2
					c0.9-2.2,1.9-5,4.8-5.2c0.7,0,1.4,0.3,1.8,0.9c0.9,1.5,0.2,3.3-0.6,4.6c-1,1.8-3,2.8-5,2.7c-1.1-0.2-1.1,1.3-1.6,2.1
					c-0.1,0.3,0,0.5,0.2,0.6c1,0.2,2.5-0.1,3.3,0.8c1.2,1.3,0.9,3.5,0.5,5.1c-0.7,2-1.4,4.3-3.2,5.3c-1.2,0.8-2.6,0.8-3.8,0
					c-0.5-0.2-1-1-1.4-0.8c-0.5,0.7-0.8,1.5-1.1,2.3c-0.2,0.5,0,0.5,0.7,1c2.2,1.7,4.9,2.6,7.7,2.5c5.6,0,10.4-2.7,14.8-5.4h0.4
					c0.7,1.9,1.9,3.8,4,4.5c4.2,1.9,8.8-0.2,11.8-2.8l0,0l0,0c0.4-0.3,0.7-0.8,1.2-0.9c0.1,1.2,0.6,2.4,1.5,3.2
					c2.6,2.1,6.4,1,9.1-0.2c2.6-1.1,5-2.4,7.4-3.9c0.1-0.1,0.4-0.4,0.5,0c-0.2,0.7-0.3,1.5-0.2,2.3c0.2,1.5,1.4,2.7,2.8,2.9
					c4.2,0.8,7.7-1.5,11-3.2c0.7-0.4,0.9-0.5,1.4-0.8c0.9-0.6,1.7-1.1,2.6-1.8c0.1-0.1,0.3-0.1,0.4,0c0.4,2.5,2.1,4.5,4.5,5.3
					c3,0.9,6.3,0.4,8.9-1.4c0.8-0.4,1.5-1,2.1-1.6c0.4-0.4,0.8-0.7,1.2-1l0.1,0.1c0.1,1,0.5,2,1.1,2.8c1.6,1.8,4.5,1.9,6.8,1.2
					c4.6-1.4,8.8-4,12.2-7.6C133.5,21.5,133.5,21.2,133.4,21z M63.3,15c-0.7,3-2.3,5.6-4.5,7.7c-0.1,0.1-0.2,0.1-0.3,0.2
					c-0.9,0.8-2.1,1.3-3.3,1.3c-0.8-0.2-1.4-0.9-1.5-1.7c-0.2-3,1.8-5.5,3.5-7.4c0.4-0.5,0.8-0.9,1.3-1.3c1.3-1,3.2-1.7,4.5-0.2
					C63.3,14,63.4,14.5,63.3,15z M114.9,19.4c-0.8,1.4-1.8,2.6-3,3.5c-0.4,0.3-0.9,0.6-1.4,0.8c-0.6,0.2-1.3,0.6-1.9,0.3
					c-0.8-0.2-1.3-0.9-1.5-1.7c-0.2-2.5,1.3-4.6,2.5-6.4c0.6-0.8,1.4-1.6,2.2-2.2l0,0l0,0c1-0.7,2.1-1.5,3.5-1.1
					c0.5,0.1,0.9,0.5,1.1,0.9C117,15.8,115.9,17.7,114.9,19.4z"/>
			</g>
		</g>
	</g>
</g>
</svg>
